<svg width="233" height="233" viewBox="0 0 233 233" fill="none" xmlns="http://www.w3.org/2000/svg">
<path fill-rule="evenodd" clip-rule="evenodd" d="M49.6873 49.6873C49.6873 49.6873 47.518 40.572 50.2755 34.728C53.0331 28.884 60.9336 16.6023 68.8335 9.87902C76.7334 3.15571 82.3309 -1.15001 86.077 0.271212C94.0843 3.30889 93.6938 28.7051 92.128 36.2408C90.7833 42.7118 91.1897 44.2565 91.1897 44.2565C91.1897 44.2565 100.196 49.0991 105.659 56.1586C110.687 62.6569 115.787 71.2204 116.5 78.5716C117.213 71.2204 122.313 62.6569 127.341 56.1586C132.804 49.0991 141.81 44.2565 141.81 44.2565C141.81 44.2565 142.216 42.7118 140.872 36.2408C139.306 28.7051 138.915 3.30889 146.923 0.271212C150.669 -1.14992 156.266 3.15571 164.166 9.87902C172.066 16.6023 179.967 28.884 182.724 34.728C185.482 40.572 183.313 49.6873 183.313 49.6873C183.313 49.6873 192.428 47.5179 198.272 50.2756C204.116 53.033 216.397 60.9336 223.121 68.8335C229.844 76.7334 234.15 82.3309 232.729 86.0771C229.691 94.0842 204.295 93.6938 196.759 92.1279C190.288 90.7833 188.743 91.1897 188.743 91.1897C188.743 91.1897 183.901 100.196 176.841 105.659C170.343 110.687 161.779 115.787 154.427 116.5C161.779 117.213 170.343 122.313 176.841 127.341C183.901 132.804 188.743 141.81 188.743 141.81C188.743 141.81 190.288 142.217 196.759 140.872C204.295 139.306 229.691 138.916 232.729 146.923C234.15 150.669 229.844 156.267 223.121 164.167C216.397 172.067 204.116 179.967 198.272 182.724C192.428 185.482 183.313 183.313 183.313 183.313C183.313 183.313 185.482 192.428 182.724 198.272C179.967 204.116 172.066 216.398 164.166 223.121C156.266 229.844 150.669 234.15 146.923 232.729C138.915 229.691 139.306 204.295 140.872 196.759C142.216 190.288 141.81 188.744 141.81 188.744C141.81 188.744 132.804 183.901 127.341 176.841C122.313 170.343 117.213 161.78 116.5 154.428C115.787 161.78 110.687 170.343 105.659 176.841C100.196 183.901 91.1897 188.744 91.1897 188.744C91.1897 188.744 90.7833 190.288 92.128 196.759C93.6938 204.295 94.0843 229.691 86.077 232.729C82.331 234.15 76.7334 229.844 68.8335 223.121C60.9335 216.398 53.0331 204.116 50.2755 198.272C47.518 192.428 49.6873 183.313 49.6873 183.313C49.6873 183.313 40.5721 185.482 34.728 182.724C28.8841 179.967 16.6024 172.066 9.879 164.167C3.15568 156.267 -1.14995 150.669 0.271185 146.923C3.30886 138.916 28.7051 139.306 36.2407 140.872C42.7118 142.217 44.2565 141.81 44.2565 141.81C44.2565 141.81 49.0991 132.804 56.1584 127.341C62.6571 122.313 71.2212 117.213 78.5725 116.5C71.2212 115.787 62.6571 110.687 56.1584 105.659C49.0991 100.196 44.2565 91.1897 44.2565 91.1897C44.2565 91.1897 42.7118 90.7833 36.2407 92.1279C28.7051 93.6938 3.30886 94.0842 0.271185 86.0771C-1.14986 82.331 3.15568 76.7334 9.879 68.8335C16.6024 60.9335 28.8841 53.033 34.728 50.2756C40.5721 47.5179 49.6873 49.6873 49.6873 49.6873ZM128.098 116.5C128.098 116.5 151.125 110.281 159.361 101.036C167.597 91.792 168.521 82.2955 168.857 77.2527C169.16 72.7185 169.938 64.5158 170.091 62.9085C168.484 63.0623 160.281 63.84 155.747 64.1424C150.705 64.4785 141.208 65.4029 131.963 73.6389C122.719 81.875 116.5 104.902 116.5 104.902C116.5 104.902 110.281 81.875 101.036 73.6389C91.7919 65.4029 82.2954 64.4785 77.2528 64.1424C72.7185 63.84 64.5158 63.0623 62.9085 62.9085C63.0623 64.5158 63.84 72.7185 64.1424 77.2527C64.4785 82.2954 65.4028 91.7919 73.6389 101.036C81.8751 110.281 104.902 116.5 104.902 116.5C104.902 116.5 81.8751 122.719 73.6389 131.964C65.4028 141.208 64.4785 150.705 64.1424 155.747C63.84 160.282 63.0623 168.484 62.9085 170.091C64.5158 169.938 72.7185 169.16 77.2528 168.858C82.2953 168.521 91.7918 167.597 101.036 159.361C110.281 151.125 116.5 128.098 116.5 128.098C116.5 128.098 122.719 151.125 131.963 159.361C141.208 167.597 150.704 168.521 155.747 168.858C160.281 169.16 168.484 169.938 170.091 170.091C169.938 168.484 169.16 160.282 168.857 155.747C168.521 150.705 167.597 141.208 159.361 131.964C151.125 122.719 128.098 116.5 128.098 116.5Z" fill="#D8D187"/>
</svg>
