<svg width="233" height="233" viewBox="0 0 233 233" fill="none" xmlns="http://www.w3.org/2000/svg">
<path fill-rule="evenodd" clip-rule="evenodd" d="M49.6872 49.6873C49.6872 49.6873 47.518 40.5719 50.2755 34.728C53.033 28.884 60.9336 16.6023 68.8334 9.87901C76.7333 3.1557 82.3308 -1.15001 86.0769 0.271212C94.0842 3.30888 93.6937 28.7051 92.1279 36.2407C90.7832 42.7118 91.1896 44.2565 91.1896 44.2565C91.1896 44.2565 100.196 49.099 105.659 56.1585C110.687 62.6568 115.786 71.2203 116.5 78.5715C117.213 71.2203 122.312 62.6568 127.341 56.1585C132.804 49.099 141.81 44.2565 141.81 44.2565C141.81 44.2565 142.216 42.7118 140.872 36.2407C139.306 28.7051 138.915 3.30888 146.923 0.271212C150.669 -1.14992 156.266 3.1557 164.166 9.87901C172.066 16.6023 179.966 28.884 182.724 34.728C185.482 40.5719 183.312 49.6873 183.312 49.6873C183.312 49.6873 192.427 47.5179 198.272 50.2755C204.115 53.0329 216.397 60.9335 223.121 68.8334C229.844 76.7333 234.149 82.3308 232.728 86.0769C229.691 94.0841 204.294 93.6937 196.759 92.1278C190.288 90.7832 188.743 91.1896 188.743 91.1896C188.743 91.1896 183.9 100.196 176.841 105.658C170.342 110.687 161.778 115.787 154.427 116.5C161.778 117.213 170.342 122.312 176.841 127.341C183.9 132.804 188.743 141.81 188.743 141.81C188.743 141.81 190.288 142.216 196.759 140.872C204.294 139.306 229.691 138.916 232.728 146.923C234.149 150.669 229.844 156.266 223.121 164.166C216.397 172.066 204.115 179.967 198.272 182.724C192.427 185.482 183.312 183.312 183.312 183.312C183.312 183.312 185.482 192.428 182.724 198.272C179.966 204.116 172.066 216.397 164.166 223.121C156.266 229.844 150.669 234.15 146.923 232.728C138.915 229.691 139.306 204.295 140.872 196.759C142.216 190.288 141.81 188.743 141.81 188.743C141.81 188.743 132.804 183.901 127.341 176.841C122.313 170.343 117.213 161.779 116.5 154.428C115.786 161.779 110.687 170.343 105.659 176.841C100.196 183.901 91.1896 188.743 91.1896 188.743C91.1896 188.743 90.7832 190.288 92.1279 196.759C93.6937 204.295 94.0842 229.691 86.0769 232.728C82.3309 234.15 76.7333 229.844 68.8334 223.121C60.9335 216.397 53.033 204.116 50.2755 198.272C47.518 192.428 49.6872 183.312 49.6872 183.312C49.6872 183.312 40.572 185.482 34.728 182.724C28.8841 179.967 16.6024 172.066 9.87898 164.166C3.15568 156.266 -1.14995 150.669 0.271185 146.923C3.30886 138.916 28.705 139.306 36.2406 140.872C42.7118 142.216 44.2564 141.81 44.2564 141.81C44.2564 141.81 49.0991 132.804 56.1584 127.341C62.657 122.313 71.2211 117.213 78.5724 116.5C71.2211 115.787 62.657 110.687 56.1584 105.658C49.0991 100.196 44.2564 91.1896 44.2564 91.1896C44.2564 91.1896 42.7118 90.7832 36.2406 92.1278C28.705 93.6937 3.30886 94.0841 0.271185 86.0769C-1.14985 82.3309 3.15568 76.7333 9.87898 68.8334C16.6024 60.9334 28.8841 53.0329 34.728 50.2755C40.572 47.5179 49.6872 49.6873 49.6872 49.6873ZM128.097 116.5C128.097 116.5 151.125 110.281 159.361 101.036C167.597 91.7918 168.521 82.2954 168.857 77.2526C169.16 72.7184 169.937 64.5157 170.091 62.9085C168.484 63.0622 160.281 63.84 155.747 64.1423C150.704 64.4784 141.208 65.4028 131.963 73.6388C122.719 81.8749 116.5 104.902 116.5 104.902C116.5 104.902 110.281 81.8749 101.036 73.6388C91.7918 65.4028 82.2952 64.4784 77.2527 64.1423C72.7184 63.84 64.5157 63.0622 62.9084 62.9085C63.0622 64.5157 63.8399 72.7184 64.1424 77.2526C64.4784 82.2953 65.4028 91.7917 73.6388 101.036C81.875 110.281 104.902 116.5 104.902 116.5C104.902 116.5 81.875 122.719 73.6388 131.963C65.4028 141.208 64.4784 150.704 64.1424 155.747C63.8399 160.281 63.0622 168.484 62.9084 170.091C64.5157 169.938 72.7184 169.16 77.2527 168.857C82.2952 168.521 91.7917 167.597 101.036 159.361C110.281 151.125 116.5 128.098 116.5 128.098C116.5 128.098 122.719 151.125 131.963 159.361C141.208 167.597 150.704 168.521 155.747 168.857C160.281 169.16 168.484 169.938 170.091 170.091C169.937 168.484 169.16 160.281 168.857 155.747C168.521 150.704 167.597 141.208 159.361 131.963C151.125 122.719 128.097 116.5 128.097 116.5Z" fill="#D8D187"/>
<circle cx="115.5" cy="9.5" r="9.5" fill="#D8D187"/>
<circle cx="223.5" cy="115.5" r="9.5" fill="#D8D187"/>
<circle cx="115.5" cy="223.5" r="9.5" fill="#D8D187"/>
<circle cx="9.5" cy="115.5" r="9.5" fill="#D8D187"/>
</svg>
