<svg width="18" height="21" viewBox="0 0 18 21" fill="none" xmlns="http://www.w3.org/2000/svg">
<path d="M9 21C10.1687 21 11.125 20.0308 11.125 18.8462H6.875C6.875 19.4174 7.09888 19.9652 7.4974 20.3692C7.89591 20.7731 8.43641 21 9 21ZM15.375 14.5385V9.15385C15.375 5.84769 13.6325 3.08 10.5938 2.34769V1.61538C10.5938 0.721539 9.88188 0 9 0C8.11812 0 7.40625 0.721539 7.40625 1.61538V2.34769C4.35688 3.08 2.625 5.83692 2.625 9.15385V14.5385L0.5 16.6923V17.7692H17.5V16.6923L15.375 14.5385Z" fill="white"/>
</svg>
